<?xml version="1.0" encoding="utf-8"?>
<!-- Generator: Adobe Illustrator 22.1.0, SVG Export Plug-In . SVG Version: 6.00 Build 0)  -->
<svg version="1.1" id="Layer_1" xmlns="http://www.w3.org/2000/svg" xmlns:xlink="http://www.w3.org/1999/xlink" x="0px" y="0px"
	 viewBox="0 0 100 125" style="enable-background:new 0 0 100 125;" xml:space="preserve">
<style type="text/css">
	.st0{fill:#42547E;}
</style>
<title>se r1</title>
<path class="st0" d="M29.2,42.1C29.3,23.4,44.6,8.3,63.3,8.5S97.1,23.9,97,42.6c-0.1,18.6-15.3,33.7-33.9,33.7
	C44.3,76.2,29.1,60.9,29.2,42.1z M33.1,42.1C33.2,58.7,46.8,72,63.3,71.9C79.9,71.8,93.2,58.2,93,41.7c-0.1-16.5-13.5-29.7-30-29.7
	C46.5,12,33.1,25.5,33.1,42.1z"/>
<rect x="-0.6" y="79.7" transform="matrix(0.7085 -0.7057 0.7057 0.7085 -50.8328 40.3136)" class="st0" width="47.9" height="3.9"/>
</svg>
