<?xml version="1.0" encoding="utf-8"?>
<!-- Generator: Adobe Illustrator 22.1.0, SVG Export Plug-In . SVG Version: 6.00 Build 0)  -->
<svg version="1.1" id="Layer_1" xmlns="http://www.w3.org/2000/svg" xmlns:xlink="http://www.w3.org/1999/xlink" x="0px" y="0px"
	 viewBox="0 0 130 173.8" style="enable-background:new 0 0 130 173.8;" xml:space="preserve">
<g>
	<path d="M63.9,13c16.3,0,29.9,13.6,29.9,29.9S80.2,72.8,63.9,72.8S34,59.2,34,42.9S47.6,13,63.9,13z M63.9,24.8
		c-10,0-17.2,8.2-17.2,17.2c0,10,8.2,17.2,17.2,17.2c10,0,17.2-8.2,17.2-17.2C81.1,32,73,24.8,63.9,24.8z"/>
	<path d="M122.8,130.8c0,10-11.8,10.9-11.8,1.8c-0.9-25.4-21.8-44.4-47.1-44.4s-46.2,19-47.1,44.4c0,9.1-11.8,8.2-11.8-1.8
		C6.8,100,33.1,75.5,63.9,76.4C94.7,76.4,121,100,122.8,130.8z"/>
</g>
</svg>
