<?xml version="1.0" encoding="utf-8"?>
<!-- Generator: Adobe Illustrator 22.0.1, SVG Export Plug-In . SVG Version: 6.00 Build 0)  -->
<svg version="1.1" id="Layer_1" xmlns="http://www.w3.org/2000/svg" xmlns:xlink="http://www.w3.org/1999/xlink" x="0px" y="0px"
	 viewBox="0 0 128 160" style="enable-background:new 0 0 128 160;" xml:space="preserve">
<path d="M21,79c-3.9,0-7,3.1-7,7s3.1,7,7,7s7-3.1,7-7S24.9,79,21,79z M21,91c-2.8,0-5-2.2-5-5s2.2-5,5-5s5,2.2,5,5S23.8,91,21,91z"
	/>
<path d="M21,75c0.6,0,1-0.4,1-1v-8c0-0.6-0.4-1-1-1s-1,0.4-1,1v8C20,74.6,20.4,75,21,75z"/>
<path d="M117,68.9c0-4.1-3.1-6.7-7.6-6.7H80.2c0.2-0.9,0.4-1.8,0.6-2.6c1.8-7.9,3.6-15.4,2.4-20.2c-0.9-3.7-2.2-9.5-6.9-11.6
	c-1.1-0.6-2.2-0.8-3.4-0.8c-2.8,0-5.5,1.7-7.1,4.5c-1.7,2.9-1.4,6.1-1.2,8.9c0.1,0.7,0.1,1.4,0.2,2.1c0.1,2.7-6.3,14-10.1,20.8
	c-1,1.8-1.9,3.3-2.6,4.7c-0.5,0.4-1.8,1.3-3.4,2.3c-0.6-2.9-3-5-6-5H15.1v47.8h27.3c2.6,0,4.9-1.8,5.7-4.2c1.5,0,2.6,0.1,3.7,0.5
	c0.6,0.2,1.1,0.6,1.7,0.9c1.4,1,3.1,2,7,2c0.1,0,0.2,0,0.2,0h39.7c4.5,0,7.6-2.8,7.6-6.8c0-1.8-0.6-3.5-1.7-4.8
	c3.2-1,5.5-3.9,5.5-7.3c0-2-0.8-3.9-2-5.3c2.9-1,4.9-3.6,4.9-6.8c0-2.1-0.8-3.9-2-5.3C115.3,74.5,117,72,117,68.9z M45.4,106.8
	c0,1.7-1.3,3-2.9,3H18.3V68.4h24.1c1.6,0,2.9,1.4,2.9,3V106.8z M109.5,73.2c-0.2-0.1-19.5-0.1-19.5-0.1c-0.9,0-1.6,0.7-1.6,1.6
	c0,0.9,0.7,1.6,1.6,1.6h17.7c2.1,0.3,3.7,2.4,3.7,4.6c0,2.4-1.9,4.1-4.5,4.1l-16.4-0.1c-1,0-1.4,0.9-1.4,1.8c0,0.9,0.7,1.6,1.6,1.6
	h13.8c2.2,0.2,4.1,2.5,4.1,4.9c0,2.5-2,4.5-4.5,4.5H90.8c-1.2,0-1.7,0.9-1.7,1.8s0.7,1.6,1.6,1.6h10.8c1.8,0.6,3.2,2.2,3.2,4.3
	c0,2.7-2.4,3.7-4.5,3.7H61.1c-0.1,0-0.1,0-0.2,0h-0.2c-3,0-4.1-0.7-5.3-1.5c-0.6-0.4-1.4-0.9-2.3-1.2c-1.5-0.6-2.9-0.6-4.5-0.7V73.9
	c5.6-3.5,5.8-3.8,6-4.2c0.8-1.4,1.8-3.1,2.7-4.9c6.1-10.7,10.6-19.1,10.5-22.5c0-0.7-0.1-1.4-0.2-2.2c-0.2-2.6-0.4-5.1,0.8-7.1
	c1.4-2.5,3.9-3.6,6.4-2.4c3.3,1.6,4.4,6,5.2,9.5c1,4.1-0.7,11.2-2.4,18.8c-0.3,1.5-0.7,3-1,4.5c-0.1,0.5,0,1,0.3,1.4
	c0.3,0.4,0.8,0.6,1.3,0.6h31.2c2.2,0,4.5,1,4.5,3.5C113.9,71.3,112.1,73,109.5,73.2z"/>
</svg>
