<?xml version="1.0" encoding="utf-8"?>
<!-- Generator: Adobe Illustrator 22.0.1, SVG Export Plug-In . SVG Version: 6.00 Build 0)  -->
<svg version="1.1" id="Layer_1" xmlns="http://www.w3.org/2000/svg" xmlns:xlink="http://www.w3.org/1999/xlink" x="0px" y="0px"
	 viewBox="0 0 63 78.8" style="enable-background:new 0 0 63 78.8;" xml:space="preserve">
<g>
	<path d="M47.3,22.1c-9.3-1.7-19-1.7-28.4,0c-3.3,0.6-5.6,3.5-5.6,6.8v2.8c0,1.1,0.8,1.9,1.9,1.9h4.5c1.1,0,1.9-0.8,1.9-1.9v-1.6
		c0-0.4,0.3-0.9,0.8-1c0.2-0.1,0.3-0.1,0.5-0.1v1.9l-5.8,16v5.2h2.6v0.6h1.3v-0.6h24.3v0.6h1.3v-0.6h2.6v-5.2l-5.8-16V29
		c0.2,0.1,0.3,0.1,0.5,0.1c0.4,0.1,0.8,0.5,0.8,1v1.6c0,1.1,0.8,1.9,1.9,1.9H51c1.1,0,1.9-0.8,1.9-1.9v-2.8
		C52.9,25.6,50.5,22.7,47.3,22.1z M19.7,32.3h-4.5c-0.4,0-0.6-0.3-0.6-0.6v-0.6h5.8v0.6C20.3,32,20.1,32.3,19.7,32.3z M26.7,28.3
		v2.1h-2.6v-1.7C25,28.6,25.9,28.5,26.7,28.3z M38.2,28.2v2.2H28v-2.2C31.4,27.8,34.8,27.8,38.2,28.2z M47.8,50.9H18.4v-3.7
		l5.6-15.5h18.3l5.6,15.5C47.8,47.2,47.8,50.9,47.8,50.9z M42,30.4h-2.6v-2.1c0.8,0.1,1.7,0.3,2.6,0.4V30.4z M44.1,27.9
		c-3.6-0.8-7.3-1.3-11-1.3s-7.4,0.4-11,1.3c-1,0.2-1.6,1-1.7,1.9h-5.8v-0.9c0-2.7,1.9-5,4.6-5.5c9.1-1.7,18.7-1.7,27.8,0
		c2.7,0.5,4.6,2.8,4.6,5.5v0.9h-5.8C45.7,28.8,45,28.1,44.1,27.9z M51,32.3h-4.5c-0.4,0-0.6-0.3-0.6-0.6v-0.6h5.8v0.6
		C51.6,32,51.4,32.3,51,32.3z"/>
	<path d="M33.1,33c-3.9,0-7,3.1-7,7s3.1,7,7,7s7-3.1,7-7S37,33,33.1,33z M33.1,45.8c-3.2,0-5.8-2.6-5.8-5.8c0-3.2,2.6-5.8,5.8-5.8
		s5.8,2.6,5.8,5.8C38.8,43.2,36.3,45.8,33.1,45.8z"/>
	<path d="M33.1,36.2c-2.1,0-3.8,1.7-3.8,3.8s1.7,3.8,3.8,3.8s3.8-1.7,3.8-3.8S35.2,36.2,33.1,36.2z M33.1,42.6
		c-1.4,0-2.6-1.2-2.6-2.6c0-1.4,1.2-2.6,2.6-2.6c1.4,0,2.6,1.2,2.6,2.6C35.6,41.4,34.5,42.6,33.1,42.6z"/>
	<rect x="32.4" y="48.3" width="1.3" height="1.3"/>
	<rect x="29.9" y="48.3" width="1.3" height="1.3"/>
	<rect x="35" y="48.3" width="1.3" height="1.3"/>
</g>
</svg>
