<?xml version="1.0" encoding="utf-8"?>
<!-- Generator: Adobe Illustrator 22.1.0, SVG Export Plug-In . SVG Version: 6.00 Build 0)  -->
<svg version="1.1" id="Layer_1" xmlns="http://www.w3.org/2000/svg" xmlns:xlink="http://www.w3.org/1999/xlink" x="0px" y="0px"
	 viewBox="0 0 100 125" style="enable-background:new 0 0 100 125;" xml:space="preserve">
<title>All3</title>
<path d="M92.4,57.8c0-23.3-18.9-42.2-42.2-42.2S8,34.5,8,57.8S26.9,100,50.2,100S92.4,81.1,92.4,57.8z M44,48.4
	c-0.1,0.5-0.2,1.1-0.3,1.6c0,0.2-0.1,0.4-0.3,0.4c0,0-0.1,0-0.1,0c-1,0-2.1,0-3.1,0H37c-0.2,0-0.3,0-0.3-0.3c0-2.1,0.5-4.3,1.3-6.2
	c1.1-2.5,3.1-4.4,5.6-5.6c4-1.9,8.6-2.2,12.7-0.6c3,1,5.3,3.2,6.5,6.1c0.7,1.8,0.9,3.8,0.7,5.7c-0.2,2.4-1.3,4.6-3.1,6.2
	c-1.4,1.3-2.8,2.5-4.2,3.8c-1.1,0.8-2,1.9-2.5,3.2c-0.3,1-0.5,2-0.6,3.1c0,0.4-0.1,0.8-0.1,1.1c0,0.1-0.1,0.3-0.2,0.3c0,0,0,0-0.1,0
	h-5.6c-0.1,0-0.2,0-0.3-0.1c0,0,0-0.1,0-0.1c0-1.8,0.2-3.7,0.6-5.4c0.5-1.9,1.6-3.5,3.1-4.8c1.2-1.2,2.5-2.3,3.7-3.5
	c1-1,1.7-2.3,2-3.7c0.5-2.4-0.4-4.1-2.7-5c-2.2-0.8-4.6-0.8-6.8,0.2C45.4,45.5,44.3,46.8,44,48.4z M46.4,75c0-2.1,1.7-3.7,3.8-3.7
	c2.1,0,3.7,1.7,3.7,3.8l0,0c0,2.1-1.7,3.7-3.8,3.7C48,78.7,46.4,77,46.4,75z"/>
</svg>
