<?xml version="1.0" encoding="utf-8"?>
<!-- Generator: Adobe Illustrator 23.0.0, SVG Export Plug-In . SVG Version: 6.00 Build 0)  -->
<svg version="1.1" id="Layer_1" xmlns="http://www.w3.org/2000/svg" xmlns:xlink="http://www.w3.org/1999/xlink" x="0px" y="0px"
	 viewBox="0 0 100 125" style="enable-background:new 0 0 100 125;" xml:space="preserve">
<style type="text/css">
	.st0{fill:#F9F9F9;}
</style>
<path class="st0" d="M88.5,33.9c-2-0.1-2.4,0.1-3,0.3c-0.7-2.2-2.8-3.9-5.3-3.9c-1.7,0-2.4,0.2-3,0.3c-0.7-2.2-2.8-3.8-5.3-3.9
	c-1.7,0-2.3,0.1-2.8,0.2V11.3c0-3-2.8-5.6-6-5.6H62c-3.1,0-5.6,2.5-5.6,5.6l0,34.6l-3.7,0.1c-0.3,0-0.5,0.1-0.7,0.2
	c-2.2,0.9-4.1,6.5-4.5,7.8c-0.6,2.2-0.6,3.7,0.1,4.7l5.1,9.6c0.4,0.8,1.4,1.2,2.3,1l1.7-0.5c0.9,4.8,4.1,7.3,7.4,8.9l0,2.4h-1.6
	c-1.1,0-2,0.9-2,2v10.2c0,1.1,0.9,2,2,2h26.3c1.1,0,2-0.9,2-2V82.1c0-1.1-0.9-2-2-2h-1.4l-0.1-3c3.7-2,6.8-4.8,6.8-10.9V39.4
	C94.1,36.4,91.6,34,88.5,33.9z M79.7,44c-0.8,0-1.6,0.3-2.2,0.7v-3.6c0.5-0.7,1.3-1.2,2.2-1.2c0.8,0,1.6,0.4,2.1,1v3.7
	C81.1,44.2,80.4,44,79.7,44z M81.6,47.9c0,1.1-0.9,1.9-1.9,1.9c-1.1,0-1.9-0.9-1.9-1.9c0-1.1,0.9-1.9,1.9-1.9
	C80.7,46,81.6,46.8,81.6,47.9z M63,46.9c-1,0-1.9,0.4-2.6,1l0-31.1c0.4-0.9,1.4-1.6,2.5-1.6c0.9,0,1.8,0.5,2.3,1.2v12V30v3.2v14.4
	C64.5,47.2,63.8,46.9,63,46.9z M64.8,50.7c0,1-0.8,1.8-1.8,1.8s-1.8-0.8-1.8-1.8s0.8-1.8,1.8-1.8S64.8,49.7,64.8,50.7z M58.6,63.3
	c-1.6,0-2.9-1.3-2.9-3s1.3-3,2.9-3s2.9,1.3,2.9,3S60.2,63.3,58.6,63.3z M69.1,37.3c0.5-0.6,1.2-1,2.1-1c0.9,0,1.7,0.5,2.2,1.2v7.1
	c-0.5-0.3-1.1-0.4-1.8-0.4c-1,0-1.9,0.4-2.6,1V37.3z M71.7,46.1c1,0,1.8,0.8,1.8,1.8s-0.8,1.8-1.8,1.8s-1.8-0.8-1.8-1.8
	S70.7,46.1,71.7,46.1z M87.4,48.9c1.1,0,1.9,0.9,1.9,1.9s-0.9,1.9-1.9,1.9s-1.9-0.9-1.9-1.9S86.3,48.9,87.4,48.9z M87.4,46.9
	c-0.6,0-1.1,0.1-1.6,0.4v-3.2c0.5-0.7,1.3-1.2,2.2-1.2c0.8,0,1.6,0.4,2.1,1V48C89.4,47.3,88.4,46.9,87.4,46.9z M87.3,37.9h1.2
	c0.9,0,1.6,0.7,1.6,1.6v2c-0.6-0.3-1.3-0.5-2.1-0.5c-0.8,0-1.6,0.2-2.2,0.6v-2.1C85.7,38.6,86.5,37.9,87.3,37.9z M79,34.3h1.2
	c0.9,0,1.6,0.7,1.6,1.6v2.5c-0.6-0.3-1.3-0.5-2.1-0.5c-0.8,0-1.6,0.2-2.2,0.6v-2.6C77.4,35,78.1,34.3,79,34.3z M70.7,30.7h1.2
	c0.9,0,1.6,0.7,1.6,1.6v2.5c-0.7-0.4-1.4-0.6-2.2-0.6c-0.8,0-1.5,0.2-2.1,0.5v-1.5C69.1,32.1,69.4,30.7,70.7,30.7z M62,9.7h1.2
	c0.9,0,2,0.8,2,1.6v2.7c-0.7-0.4-1.4-0.6-2.3-0.6c-0.9,0-1.7,0.3-2.4,0.7l0-2.8C60.4,10.4,61.1,9.7,62,9.7z M51,56.7
	C51,56.7,51,56.6,51,56.7c-0.1-1.3,1.5-5.4,2.5-6.8l2.8-0.1l0,5.3c0,0.2,0,0.5,0.1,0.7c-1.6,0.8-2.8,2.5-2.8,4.5
	c0,1.9,1,3.5,2.6,4.4L55.4,65L51,56.7z M64.4,90.3v-6.2c0,0,1.8,0,1.9,0c0.6,2.7,2.4,5,4.8,6.2L64.4,90.3L64.4,90.3L64.4,90.3z
	 M75.5,89.4c-5,0-7.5-3.8-7.5-7.5s2.5-7.5,7.5-7.5c5,0,7.5,3.7,7.5,7.5C83.1,85.7,80.6,89.4,75.5,89.4z M75.5,72.5
	c-2.9,0-5.5,1.3-7.2,3.3c0.1-2.2,2.3-17.2,7.2-17.2c5.7,0,7,13.2,7.1,17.1C80.9,73.7,78.4,72.5,75.5,72.5z M80,90.3
	c2.4-1.3,4.2-3.6,4.8-6.3c0.2,0.1,1.9,0.1,1.9,0.1v6.2h-0.1H80z M84.6,73.9c-0.1-3.1-1.3-17.3-9.1-17.3c-7.8,0-9.1,16.2-9.1,17.8
	c-5.6-2-6.1-8.9-6.3-9.3c2-0.6,3.5-2.5,3.5-4.8c0-2.2-1.3-4-3.2-4.7c0-0.2,0.1-0.3,0.1-0.5l0-1.7c0.7,0.6,1.6,1,2.6,1
	c2.1,0,3.8-1.7,3.8-3.8c0-0.2,0-0.4-0.1-0.7c0.1,0,1.3-0.1,1.6-0.4c0.6,1.2,1.9,2,3.3,2c1.7,0,3.1-1.1,3.6-2.6c0.1,0,0.5,0,0.7-0.1
	c0.5,1.6,2,2.7,3.7,2.7c1.1,0,2.1-0.5,2.8-1.2c0.3,0.2,0.6,0.4,1,0.4c0.1,2.1,1.8,3.8,3.9,3.8c1,0,2-0.4,2.7-1.1v12.5
	C90.1,69.9,88.7,71.9,84.6,73.9z M7.2,20c-0.2-0.5-0.1-1.1,0.4-1.3c0.5-0.3,1.1-0.1,1.3,0.4l8.7,17.1l7.8-28.3
	c0.1-0.4,0.5-0.7,1-0.7h13c0.6,0,1,0.4,1,1s-0.4,1-1,1H27.2l-8.3,30c-0.1,0.4-0.5,0.7-0.9,0.7c0,0-0.1,0-0.1,0
	c-0.4,0-0.7-0.2-0.9-0.5L7.2,20z M42.4,8.2c0-0.6,0.4-1,1-1h4.3c0.6,0,1,0.4,1,1s-0.4,1-1,1h-4.3C42.8,9.2,42.4,8.7,42.4,8.2z
	 M51,8.2c0-0.6,0.4-1,1-1h2.4c0.6,0,1,0.4,1,1s-0.4,1-1,1H52C51.4,9.2,51,8.7,51,8.2z M39.5,14.5c-0.6,0-1,0.4-1,1v3.3
	c-3.7,0.5-6.7,3.7-6.7,7.6c0,4.2,3.4,7.7,7.7,7.7s7.7-3.4,7.7-7.7c0-3.9-2.9-7.1-6.7-7.6v-3.3C40.5,14.9,40.1,14.5,39.5,14.5z
	 M33.9,26.4c0-2.8,2-5.1,4.7-5.6v11.1C35.9,31.5,33.9,29.2,33.9,26.4z M45.2,26.4c0,2.8-2,5.1-4.7,5.6V20.8
	C43.2,21.3,45.2,23.6,45.2,26.4z M47,46h-39c-0.6,0-1-0.4-1-1s0.4-1,1-1h39c0.6,0,1,0.4,1,1S47.5,46,47,46z M24.1,50
	c-0.4-0.6-1.4-0.6-1.7,0l-9.7,16.7c-0.2,0.3-0.2,0.7,0,1c0.2,0.3,0.5,0.5,0.9,0.5h19.4c0,0,0,0,0,0c0.6,0,1-0.4,1-1
	c0-0.2-0.1-0.5-0.2-0.7L24.1,50z M15.3,66.2l7.9-13.7l7.9,13.7H15.3z"/>
</svg>
