<?xml version="1.0" encoding="utf-8"?>
<!-- Generator: Adobe Illustrator 23.0.0, SVG Export Plug-In . SVG Version: 6.00 Build 0)  -->
<svg version="1.1" id="Layer_1" xmlns="http://www.w3.org/2000/svg" xmlns:xlink="http://www.w3.org/1999/xlink" x="0px" y="0px"
	 viewBox="0 0 50 62.5" style="enable-background:new 0 0 50 62.5;" xml:space="preserve">
<style type="text/css">
	.st0{fill:#FCFCFC;}
</style>
<path class="st0" d="M48.8,43.8H3c2.3-1.4,4.8-2.7,7.3-4.1c12.3-6.7,26.3-14.2,36.9-33.1c0.1-0.2,0-0.5-0.2-0.7
	c-0.2-0.1-0.5,0-0.7,0.2C35.9,24.8,22.1,32.3,9.9,38.9c-2.8,1.5-5.5,3-8.2,4.6V5.7c0-0.3-0.2-0.5-0.5-0.5S0.7,5.4,0.7,5.7v38.6
	c0,0,0,0,0,0c0,0,0,0.1,0,0.1s0,0.1,0,0.1c0,0,0,0,0,0c0,0,0,0,0,0c0,0,0.1,0.1,0.1,0.1c0,0,0,0,0.1,0c0.1,0,0.1,0.1,0.2,0.1h47.6
	c0.3,0,0.5-0.2,0.5-0.5S49.1,43.8,48.8,43.8z"/>
<circle class="st0" cx="20.9" cy="19.1" r="1.5"/>
<circle class="st0" cx="26.4" cy="18" r="1.5"/>
<circle class="st0" cx="24.3" cy="23.1" r="1.5"/>
<circle class="st0" cx="23.6" cy="13.9" r="1.5"/>
<circle class="st0" cx="31.3" cy="15.4" r="1.5"/>
<circle class="st0" cx="18.2" cy="15.4" r="1.5"/>
<circle class="st0" cx="18.2" cy="23.7" r="1.5"/>
<circle class="st0" cx="13.9" cy="19.5" r="1.5"/>
<circle class="st0" cx="20.3" cy="27.8" r="1.5"/>
<circle class="st0" cx="13.4" cy="26.8" r="1.5"/>
<circle class="st0" cx="9.3" cy="23.1" r="1.5"/>
<circle class="st0" cx="30.2" cy="21" r="1.5"/>
<circle class="st0" cx="13.4" cy="32.5" r="1.5"/>
<path class="st0" d="M38.1,36c0.1,0.1,0.2,0.1,0.4,0.1s0.3,0,0.4-0.1l1.6-1.6c0.2-0.2,0.2-0.5,0-0.7l-1.6-1.6
	c-0.2-0.2-0.5-0.2-0.7,0l-1.6,1.6c-0.2,0.2-0.2,0.5,0,0.7L38.1,36z"/>
<path class="st0" d="M37.5,30.9c0.1,0,0.3,0,0.4-0.1l1.6-1.6c0.1-0.1,0.1-0.2,0.1-0.4s-0.1-0.3-0.1-0.4l-1.6-1.6
	c-0.2-0.2-0.5-0.2-0.7,0l-1.6,1.6c-0.1,0.1-0.1,0.2-0.1,0.4s0.1,0.3,0.1,0.4l1.6,1.6C37.2,30.9,37.4,30.9,37.5,30.9z"/>
<path class="st0" d="M33.2,33.2l-1.6-1.6c-0.2-0.2-0.5-0.2-0.7,0l-1.6,1.6c-0.2,0.2-0.2,0.5,0,0.7l1.6,1.6c0.1,0.1,0.2,0.1,0.4,0.1
	s0.3,0,0.4-0.1l1.6-1.6C33.4,33.7,33.4,33.4,33.2,33.2z"/>
<path class="st0" d="M33.5,39.8c0.1,0.1,0.2,0.1,0.4,0.1s0.3,0,0.4-0.1l1.6-1.6c0.2-0.2,0.2-0.5,0-0.7l-1.6-1.6
	c-0.2-0.2-0.5-0.2-0.7,0L32,37.5c-0.2,0.2-0.2,0.5,0,0.7L33.5,39.8z"/>
<path class="st0" d="M26,35.3l-1.6,1.6c-0.1,0.1-0.1,0.2-0.1,0.4s0.1,0.3,0.1,0.4l1.6,1.6c0.1,0.1,0.2,0.1,0.4,0.1s0.3-0.1,0.4-0.1
	l1.6-1.6c0.1-0.1,0.1-0.2,0.1-0.4s-0.1-0.3-0.1-0.4l-1.6-1.6C26.5,35.1,26.2,35.1,26,35.3z"/>
<path class="st0" d="M43.4,30.8c0.1,0.1,0.2,0.1,0.4,0.1s0.3,0,0.4-0.1l1.6-1.6c0.2-0.2,0.2-0.5,0-0.7l-1.6-1.6
	c-0.2-0.2-0.5-0.2-0.7,0l-1.6,1.6c-0.2,0.2-0.2,0.5,0,0.7L43.4,30.8z"/>
<path class="st0" d="M41.6,25.2c0.1,0,0.3,0,0.4-0.1l1.6-1.6c0.2-0.2,0.2-0.5,0-0.7L42,21.2c-0.2-0.2-0.5-0.2-0.7,0l-1.6,1.6
	c-0.2,0.2-0.2,0.5,0,0.7l1.6,1.6C41.4,25.2,41.5,25.2,41.6,25.2z"/>
</svg>
