<?xml version="1.0" encoding="utf-8"?>
<!-- Generator: Adobe Illustrator 22.0.1, SVG Export Plug-In . SVG Version: 6.00 Build 0)  -->
<svg version="1.1" id="Layer_1" xmlns="http://www.w3.org/2000/svg" xmlns:xlink="http://www.w3.org/1999/xlink" x="0px" y="0px"
	 viewBox="0 0 100 125" style="enable-background:new 0 0 100 125;" xml:space="preserve">
<g>
	<path d="M24.9,47.5v33.9h57V47.5C82,47.5,24.9,47.5,24.9,47.5z M78.7,49L55.8,63.6c-2.3,1.6-4.3,0.1-4.4,0L28.2,49H78.7z
		 M26.4,49.6l22.2,14L26.4,79.2V49.6z M28,79.9L50,64.5l0.6,0.3c0.6,0.5,1.8,1,3.1,1c0.9,0,2-0.3,3-1l0.8-0.5l22.1,15.5H28z
		 M80.5,78.7L58.7,63.5l21.7-13.9V78.7z"/>
	<path d="M8.2,51.4h13.2c0.5,0,0.9-0.4,0.9-0.9c0-0.5-0.4-0.9-0.9-0.9H8.2c-0.5,0-0.9,0.4-0.9,0.9C7.3,51,7.7,51.4,8.2,51.4z"/>
	<path d="M21.7,54.7h-18c-0.5,0-0.9,0.4-0.9,0.9s0.4,0.9,0.9,0.9h18c0.5,0,0.9-0.4,0.9-0.9S22.2,54.7,21.7,54.7z"/>
	<path d="M21.7,59.9H10.9c-0.5,0-0.9,0.4-0.9,0.9c0,0.5,0.4,0.9,0.9,0.9h10.8c0.5,0,0.9-0.4,0.9-0.9C22.5,60.3,22.1,59.9,21.7,59.9z
		"/>
</g>
</svg>
