<?xml version="1.0" encoding="utf-8"?>
<!-- Generator: Adobe Illustrator 22.0.1, SVG Export Plug-In . SVG Version: 6.00 Build 0)  -->
<svg version="1.1"
	 id="Layer_1" xmlns:cc="http://creativecommons.org/ns#" xmlns:dc="http://purl.org/dc/elements/1.1/" xmlns:inkscape="http://www.inkscape.org/namespaces/inkscape" xmlns:rdf="http://www.w3.org/1999/02/22-rdf-syntax-ns#" xmlns:sodipodi="http://sodipodi.sourceforge.net/DTD/sodipodi-0.dtd" xmlns:svg="http://www.w3.org/2000/svg"
	 xmlns="http://www.w3.org/2000/svg" xmlns:xlink="http://www.w3.org/1999/xlink" x="0px" y="0px" viewBox="0 0 100 125"
	 style="enable-background:new 0 0 100 125;" xml:space="preserve">
<g transform="translate(0,-952.36218)">
	<path d="M45,989.4c-7.9,0-15.1,2-20.3,5.4s-8.7,8.2-8.7,13.6c0,6.6,5.4,12.1,12.8,15.5l-3.8,14.2c-0.2,0.5,0.1,1.1,0.7,1.2
		c0.4,0.1,0.8,0,1-0.3l11.3-11.3c0.1,0.2,0.3,0.4,0.5,0.5c5.1,2.7,11.6,3.1,18.5,3.1h6.6l11.7,11.7c0.4,0.4,1,0.4,1.4,0
		c0.3-0.3,0.4-0.7,0.3-1l-3.8-14.2c7.4-3.4,12.8-8.8,12.8-15.5c0-4.6-3.4-9-8.1-12.5s-10.8-6.3-16.8-7.5c-0.1,0-0.3,0-0.4,0
		c0,0,0,0-0.1,0C56.2,990.5,50.8,989.4,45,989.4z M45,991.4c7.6,0,14.4,2,19.2,5.1s7.8,7.4,7.8,11.9s-2.9,8.7-7.8,11.9
		c-4.9,3.1-11.7,5.1-19.2,5.1h-7c-0.3,0-0.5,0.1-0.7,0.3l-9.3,9.3l3-11.4c0.1-0.5-0.1-1-0.6-1.2c-7.4-3.1-12.4-8.3-12.4-14.1
		c0-4.6,2.9-8.8,7.8-11.9C30.6,993.3,37.4,991.4,45,991.4z M67.4,996.3c3.4,1.3,6.6,3.1,9.3,5.1c4.4,3.4,7.3,7.4,7.3,10.9
		c0,5.8-4.9,10.9-12.4,14.1c-0.5,0.2-0.7,0.7-0.6,1.2l3,11.4l-9.3-9.3c-0.2-0.2-0.5-0.3-0.7-0.3h-7c-5.8,0-11.2-0.3-15.6-2H45
		c7.9,0,15.1-2.1,20.3-5.4c5.3-3.4,8.7-8.2,8.7-13.6C74,1003.7,71.5,999.5,67.4,996.3L67.4,996.3z M34,1005.4c-1.7,0-3,1.3-3,3
		s1.3,3,3,3s3-1.3,3-3S35.7,1005.4,34,1005.4z M46,1005.4c-1.7,0-3,1.3-3,3s1.3,3,3,3s3-1.3,3-3S47.7,1005.4,46,1005.4z M58,1005.4
		c-1.7,0-3,1.3-3,3s1.3,3,3,3s3-1.3,3-3S59.7,1005.4,58,1005.4z"/>
</g>
</svg>
