<?xml version="1.0" encoding="utf-8"?>
<!-- Generator: Adobe Illustrator 22.0.1, SVG Export Plug-In . SVG Version: 6.00 Build 0)  -->
<svg version="1.1" id="Layer_1" xmlns="http://www.w3.org/2000/svg" xmlns:xlink="http://www.w3.org/1999/xlink" x="0px" y="0px"
	 viewBox="0 0 48 60" style="enable-background:new 0 0 48 60;" xml:space="preserve">
<path d="M24,25c-5.3,0-9.7-4.3-9.7-9.7s4.3-9.7,9.7-9.7s9.7,4.3,9.7,9.7S29.3,25,24,25z M24,7.7c-4.2,0-7.7,3.4-7.7,7.7
	S19.8,23,24,23c4.2,0,7.7-3.4,7.7-7.7S28.2,7.7,24,7.7z M34.1,42.3c0.5-0.1,0.9-0.7,0.7-1.2l-1.1-4.3c-0.1-0.5-0.7-0.8-1.2-0.7
	c-0.5,0.1-0.9,0.7-0.7,1.2l1.1,4.3c0.1,0.4,0.5,0.7,1,0.7C33.9,42.3,34,42.3,34.1,42.3z M15.2,41.6l1.1-4.3c0.1-0.5-0.2-1.1-0.7-1.2
	c-0.5-0.1-1.1,0.2-1.2,0.7l-1.1,4.3c-0.1,0.5,0.2,1.1,0.7,1.2c0.1,0,0.2,0,0.3,0C14.6,42.3,15,42,15.2,41.6z M41.7,42.3
	c0.5-0.2,0.8-0.7,0.6-1.3l-3.6-10.9c-0.5-1.5-2.2-2.7-3.8-2.7H13.2c-1.6,0-3.3,1.2-3.8,2.7L5.7,41c-0.2,0.5,0.1,1.1,0.6,1.3
	c0.5,0.2,1.1-0.1,1.3-0.6l3.6-10.9c0.2-0.7,1.1-1.4,1.9-1.4h21.7c0.8,0,1.7,0.7,1.9,1.4l3.6,10.9c0.1,0.4,0.5,0.7,0.9,0.7
	C41.4,42.3,41.5,42.3,41.7,42.3z"/>
</svg>
