<?xml version="1.0" encoding="utf-8"?>
<!-- Generator: Adobe Illustrator 22.1.0, SVG Export Plug-In . SVG Version: 6.00 Build 0)  -->
<svg version="1.1" id="Layer_1" xmlns="http://www.w3.org/2000/svg" xmlns:xlink="http://www.w3.org/1999/xlink" x="0px" y="0px"
	 viewBox="0 0 100 125" style="enable-background:new 0 0 100 125;" xml:space="preserve">
<style type="text/css">
	.st0{fill:#050001;}
</style>
<g>
	<g>
		<g>
			<g>
				<g>
					<path class="st0" d="M75,35.6c2.4,0,4.3,2,4.3,4.4v20.1c0,2.4-1.9,4.4-4.3,4.4c-3.1,0-5.7,2.5-5.7,5.7V71l-11.7-5.9
						c-0.8-0.4-1.7-0.6-2.6-0.6H25c-2.4,0-4.3-2-4.3-4.4V40c0-2.4,1.9-4.4,4.3-4.4H75 M75,29.9H25c-5.5,0-10,4.5-10,10.1v20.1
						c0,5.6,4.5,10.1,10,10.1h30.1l17,8.6c0.3,0.1,0.6,0.2,0.9,0.2c1.1,0,2-0.9,2-2.1v-6.7l0,0c5.5,0,10-4.5,10-10.1V40
						C85,34.4,80.5,29.9,75,29.9L75,29.9z"/>
				</g>
			</g>
		</g>
	</g>
</g>
</svg>
