<?xml version="1.0" encoding="utf-8"?>
<!-- Generator: Adobe Illustrator 22.1.0, SVG Export Plug-In . SVG Version: 6.00 Build 0)  -->
<svg version="1.1" id="Layer_1" xmlns="http://www.w3.org/2000/svg" xmlns:xlink="http://www.w3.org/1999/xlink" x="0px" y="0px"
	 viewBox="0 0 74.3 70.4" style="enable-background:new 0 0 74.3 70.4;" xml:space="preserve">
<g>
	<path d="M66.7,40c-0.1-0.5-0.2-1.3-0.3-2.3c-0.7-4.9-2.1-15.1-4.2-19.8c-2.1-4.7-3.3-6.2-5.7-6.6c-1.7-0.2-3.1,0.6-3.8,1.2
		c-0.9-1.2-2.2-2.2-4.9-2.7c-1.2-0.2-3.1-0.3-5.8-0.3c-4.3,0-9.2,0.2-9.9,0.2c-0.2,0-0.7-0.1-1.4-0.1c-1.7,0-4.6,0.3-7.3,2.2
		c-0.5-0.3-1.2-0.6-2.1-0.7c-1.2-0.1-2.5,0.4-3.7,1.5C14.3,15.6,5.2,33.9,5,40.3c-0.1,3.1,0.6,5.2,2.1,6.4c0.7,0.5,1.6,0.8,2.4,0.8
		c0.4,0,0.8-0.1,1.2-0.2c1.4-0.4,4.1-2,5.7-4.2c-0.2,3.7-0.3,9.8,1.7,11.2c0.6,0.4,2.1,1.2,3.6,1.4c2.8,0.3,7.6,0.6,12.8,0.6l0,0
		c2.9,0,5.5-0.1,6.7-0.2c1-0.1,2.5-0.2,4.2-0.3c8.1-0.6,11.6-0.8,12.3-1.4c0.6-0.4,0.9-1.3,0.6-8.4c0.7,0.8,1.8,1.5,3.2,1.5
		c0.2,0,0.3,0,0.5,0c1.3-0.2,2.5-0.8,3.3-1.9C66.6,44.2,67,42.1,66.7,40z M31.8,11.4c0.1,0,0.1,0,0.2,0c0.1,0,5.3-0.2,9.9-0.2
		c2.7,0,4.6,0.1,5.6,0.2c2.6,0.4,3.3,1.3,4,2.2c0.2,0.2,0.3,0.5,0.5,0.8c0.2,0.2,0.2,0.4,0.4,0.7c0.7,1.1,2.2,9.5,2.9,15.2
		c-0.1-0.1-0.2-0.2-0.2-0.2c-1.6-2-6.3-2.2-8.3-2.2c-0.3,0-1.8,0-3.8,0.1c-1.5,0-3.2,0.1-5.2,0.2c-0.3,0-0.7,0-1.1,0
		c-4.3,0.1-9,0.2-11.8,0.2c-2.9,0-4.6,0.7-5.7,1.4c0.8-6.7,2.2-13.8,3.9-15.6c0.3,0.2,0.7,0.2,1-0.1c0.2-0.2,0.3-0.6,0.2-0.9
		c2.2-1.5,4.7-1.7,6-1.7C31.3,11.3,31.8,11.4,31.8,11.4z M30.6,30.3c0-0.1-0.1-0.1-0.1-0.2c1.7-0.3,4.1-0.5,6.4-0.5c0.3,0,0.7,0,1,0
		c0.6,0,1.2,0,1.7,0c2,0,3.4,0.1,4.3,0.2c-2.2,1.9-7.2,5.7-8.5,6.1C34.7,35.3,32.1,32.3,30.6,30.3z M39.2,43.1
		c-2.1,4-3.4,3.7-4.9,3.4c-1.2-0.2-1.7-2.5-1.8-3.2v-0.1c1.3-1.1,2.3-2.5,3-3.9C36.1,40.5,37.2,42,39.2,43.1z M16.7,40.5
		c-0.3,0-0.7,0.2-0.8,0.5c-0.9,2.2-4.2,4.3-5.6,4.7c-0.6,0.2-1.4,0.2-2.2-0.3c-1.1-0.8-1.6-2.5-1.5-5c0.2-6,9-23.7,12-26.5
		c1.3-1.2,2.4-1.2,3.2-0.8C18.3,17.4,17,36,16.7,40.5z M56.8,53.1c-1.3,0.4-7.8,0.8-11.4,1.1c-1.7,0.1-3.2,0.2-4.2,0.3
		c-1.2,0.1-3.7,0.2-6.6,0.2l0,0c-5.2,0-9.8-0.2-12.6-0.5c-1.2-0.2-2.4-0.8-2.8-1.1c-1.1-0.7-1.2-6.7-0.7-11.7
		c0.1-2.1,0.3-5.2,0.7-8.6c0.2-0.1,0.4-0.3,0.4-0.6c0-0.1,0.4-2.4,5.6-2.3c1.1,0,2.3,0,3.8,0c-0.1,0.4,0.1,0.9,0.4,1.5
		c0.4,0.6,3.4,4.5,5.2,5.7c-0.4,1.7-1.6,3.7-3.2,5c-1.5,1.1-4.6,0.1-5.6-0.4c-0.4-0.2-0.9,0-1.1,0.4c-0.2,0.4,0,0.9,0.4,1.1
		c0.2,0.1,3.5,1.6,6.1,0.8c0.2,1.2,1,3.7,3.1,4.2c0.5,0.1,1,0.2,1.5,0.2c1.8,0,3.4-1,5.2-4.5c1.3,0.6,3,0.9,4.9,1.1c0,0,0,0,0.1,0
		c0.4,0,0.8-0.3,0.8-0.7c0-0.5-0.3-0.8-0.7-0.9c-2.2-0.2-3.8-0.6-5.1-1.2l0,0l0,0c-2.9-1.4-4-3.6-4.3-4.7c2.9-1.3,9.7-7,10-7.4
		c0.1-0.1,0.2-0.2,0.2-0.4c0.2,0,0.2,0,0.3,0c2.8,0,6.2,0.5,7.1,1.6c1.2,1.5,2,2.5,2,3.7l0,0c0,0.2,0,0.3,0,0.4
		c0,0.5,0.1,1.5,0.2,2.7C56.4,41.7,57.2,51.3,56.8,53.1z M64.2,44.7c-0.6,0.7-1.3,1.2-2.2,1.2c-2.3,0.2-3.5-2.7-3.5-2.7
		c-0.1-0.2-0.2-0.2-0.3-0.3c-0.1-1.5-0.2-3.1-0.3-5c-0.1-1.3-0.2-2.2-0.2-2.7c0-0.1,0-0.2,0-0.5l0,0v-0.1C57.4,31,55.3,16.2,54,14.2
		c-0.1-0.1-0.2-0.2-0.2-0.3c0.3-0.3,1.4-1.1,2.7-0.9c1.2,0.2,2.2,0.7,4.3,5.7c2,4.5,3.3,14.6,4.1,19.4c0.2,1,0.2,1.8,0.3,2.3
		C65.4,41.9,65,43.6,64.2,44.7z"/>
	<path d="M46.9,23.3c0.2,0.1,0.5,0.1,0.7,0.1c0.7,0,1.8-0.3,2.2-2c0.1-0.4,0-0.8-0.3-1.2C49,19.5,47.9,19,47,19
		c-0.7,0-1.4,0.2-1.8,0.7c-0.2,0.2-0.2,0.3-0.2,0.6C44.9,21.4,45.3,22.9,46.9,23.3z M46.9,20.8c0.5,0,1,0.3,1.2,0.5
		c-0.2,0.5-0.3,0.5-0.5,0.5c-0.1,0-0.2,0-0.4-0.1c-0.4-0.1-0.6-0.6-0.7-0.9C46.6,20.8,46.8,20.8,46.9,20.8z"/>
	<path d="M27.7,23.9c0.4,0,0.7-0.2,1-0.4c0.6-0.6,1.3-1.8,1.1-2.8c-0.1-0.4-0.4-0.8-0.8-0.9c-0.2-0.1-0.7-0.2-1.1-0.2
		c-0.7,0-1.2,0.1-1.2,0.1l0,0c-0.2,0-1.1,0.2-1.4,0.9c-0.1,0.2-0.2,0.7,0.1,1.4C25.6,22.4,26.6,23.9,27.7,23.9z M27.1,21.4
		c0,0,0.5-0.1,1-0.1c0.1,0,0.2,0,0.2,0c-0.1,0.2-0.2,0.7-0.5,1C27.6,22.2,27.4,21.9,27.1,21.4C27,21.4,27.1,21.4,27.1,21.4z"/>
	<path d="M32.1,17.4l0.5-0.4c0,1,0.1,2,0.3,2.5c0.2,0.4,0.7,0.7,1.2,0.7c0.6-0.1,1.7-0.7,2.4-1.4c0.6,1.7,0.8,2.2,1.3,2.5
		c0.2,0.1,0.2,0.1,0.4,0.1s0.4-0.1,0.6-0.2c0.5-0.3,0.9-1.7,1.2-3c0.2,0.2,0.4,0.3,0.6,0.5c0.4,0.2,0.8,0.2,1.2-0.1
		c0.4-0.3,0.6-1.2,0.7-2.1c0.7,0.5,1.1,0.7,1.4,0.7c0.5,0,0.8-0.3,0.8-0.8c0-0.4-0.3-0.7-0.7-0.8c-0.2-0.1-1-0.7-1.2-0.8
		c-0.7-0.5-1.1-0.7-1.6-0.4c-0.2,0.2-0.4,0.5-0.3,0.8c0,0.2,0,0.8-0.1,1.4c-0.1-0.1-0.2-0.2-0.2-0.3c-0.4-0.6-0.8-1.1-1.5-0.7
		c-0.1,0.1-0.7,0.3-0.5,1.1c0,0.3-0.2,1.2-0.3,2.1c0-0.1-0.1-0.2-0.1-0.3c-0.5-1.4-0.7-1.9-1.3-1.8c-0.3,0-0.7,0.2-0.7,0.6
		c-0.2,0.3-1,1-1.6,1.3c-0.1-0.7-0.1-1.9-0.1-3c0-0.3-0.2-0.6-0.5-0.7s-0.7-0.1-0.9,0.1l-1.8,1.5c-0.3,0.3-0.4,0.8-0.1,1.2
		C31.3,17.6,31.8,17.6,32.1,17.4z"/>
</g>
</svg>
