<?xml version="1.0" encoding="utf-8"?>
<!-- Generator: Adobe Illustrator 22.1.0, SVG Export Plug-In . SVG Version: 6.00 Build 0)  -->
<svg version="1.1" id="Layer_1" xmlns="http://www.w3.org/2000/svg" xmlns:xlink="http://www.w3.org/1999/xlink" x="0px" y="0px"
	 viewBox="0 0 144.1 180" style="enable-background:new 0 0 144.1 180;" xml:space="preserve">
<style type="text/css">
	.st0{fill:#374669;}
</style>
<path class="st0" d="M72,65.9c-12.6,0-23.4,7.8-28.9,20.9c-4.4,10.4-4.1,21.1,0.8,26.2c2.6,2.7,5.6,4,8.9,4h0c4.8,0,9.1-2.8,13-5.2
	c2.3-1.5,4.9-3.1,6.3-3.1c1.4,0,4.1,1.7,6.4,3.1c3.9,2.4,8.3,5.2,13,5.2c3.3,0,6.2-1.3,8.7-3.9c5-5.2,5.4-16.1,0.9-26.6
	C95.6,73.5,84.7,65.9,72,65.9z M95.8,108.8c-1.4,1.4-2.8,2.1-4.4,2.1c-3,0-6.6-2.3-9.8-4.2c-3.3-2.1-6.5-4-9.6-4
	c-3.1,0-6.2,2-9.5,4.1c-3.1,2-6.7,4.3-9.7,4.3c-1.7,0-3.1-0.7-4.6-2.2c-2.7-2.8-3.3-10.9,0.4-19.6c1.7-4.1,8.5-17.3,23.4-17.3
	c14.7,0,21.3,11.8,23.5,16.9C99.3,97.6,98.6,105.9,95.8,108.8z"/>
<path class="st0" d="M59.5,61c0.6,0,1.2-0.1,1.8-0.2c6.6-1.3,10.4-9.8,8.6-19.2C68.4,33.2,62.8,27,56.7,27c-0.6,0-1.2,0.1-1.8,0.2
	c-6.6,1.3-10.4,9.8-8.6,19.2C47.9,54.9,53.4,61,59.5,61z M56.2,33.1c0.2,0,0.4-0.1,0.6-0.1c2.6,0,6.2,3.7,7.3,9.8
	c1.2,6.5-1.1,11.6-3.9,12.2c-0.2,0-0.4,0.1-0.6,0.1c-2.6,0-6.2-3.7-7.3-9.8C51,38.8,53.3,33.6,56.2,33.1z"/>
<path class="st0" d="M44.9,57.6c-3-4.4-7.5-7.1-11.8-7.1c-2,0-4,0.6-5.5,1.8c-4.9,3.7-5.1,11.8-0.6,18.5c3,4.4,7.5,7.1,11.8,7.1
	c2,0,4-0.6,5.5-1.8C49.2,72.3,49.5,64.2,44.9,57.6z M40.7,71.3c-0.5,0.4-1.1,0.6-1.9,0.6c-2.3,0-4.9-1.8-6.8-4.5
	c-2.9-4.2-2.7-8.8-0.7-10.3c0.5-0.4,1.1-0.6,1.9-0.6c2.3,0,4.9,1.8,6.8,4.5C42.9,65.2,42.7,69.8,40.7,71.3z"/>
<path class="st0" d="M82.8,60.8C83.4,61,84,61,84.6,61c0,0,0,0,0,0c6.1,0,11.6-6.2,13.2-14.7c1.7-9.4-2.1-17.8-8.6-19.2
	c-0.6-0.1-1.2-0.2-1.8-0.2c-6.1,0-11.6,6.2-13.2,14.7C72.4,51.1,76.2,59.5,82.8,60.8z M80.1,42.8c1.1-6,4.6-9.8,7.3-9.8
	c0.2,0,0.4,0,0.6,0.1c2.8,0.6,5.1,5.7,3.9,12.2c-1.1,6-4.6,9.8-7.3,9.8c-0.2,0-0.4,0-0.6-0.1C81.2,54.4,78.9,49.2,80.1,42.8z"/>
<path class="st0" d="M116.4,52.3c-1.6-1.2-3.5-1.8-5.5-1.8c-4.2,0-8.8,2.7-11.8,7.1c-4.6,6.6-4.3,14.8,0.6,18.5
	c1.6,1.2,3.5,1.8,5.5,1.8c4.2,0,8.8-2.7,11.8-7.1C121.6,64.2,121.3,56.1,116.4,52.3z M112.1,67.4c-1.9,2.7-4.5,4.5-6.8,4.5
	c-0.7,0-1.4-0.2-1.9-0.6c-2-1.5-2.2-6.1,0.7-10.3c1.9-2.7,4.5-4.5,6.8-4.5c0.7,0,1.4,0.2,1.9,0.6C114.8,58.6,114.9,63.2,112.1,67.4z
	"/>
</svg>
